<mxfile host="app.diagrams.net" modified="2023-05-11T19:51:09.656Z" agent="Mozilla/5.0 (Windows NT 10.0; Win64; x64) AppleWebKit/537.36 (KHTML, like Gecko) Chrome/113.0.0.0 Safari/537.36" etag="c_khNDqngz_ouojMf05M" version="21.2.9" type="device">
  <diagram name="Page-1" id="qGRGRafwyoV3ThVmlI8I">
    <mxGraphModel dx="1502" dy="573" grid="1" gridSize="10" guides="1" tooltips="1" connect="1" arrows="1" fold="1" page="1" pageScale="1" pageWidth="827" pageHeight="1169" math="0" shadow="0">
      <root>
        <mxCell id="0" />
        <mxCell id="1" parent="0" />
        <mxCell id="efT1H9IHbkuEdNpOwblL-1" value="Student" style="swimlane;fontStyle=1;align=center;verticalAlign=top;childLayout=stackLayout;horizontal=1;startSize=26;horizontalStack=0;resizeParent=1;resizeParentMax=0;resizeLast=0;collapsible=1;marginBottom=0;whiteSpace=wrap;html=1;movable=1;resizable=1;rotatable=1;deletable=1;editable=1;locked=0;connectable=1;" parent="1" vertex="1">
          <mxGeometry x="48" y="340" width="160" height="190" as="geometry" />
        </mxCell>
        <mxCell id="efT1H9IHbkuEdNpOwblL-2" value="+ roll_number: int&lt;br&gt;+ name: str&lt;br&gt;+ department: str&lt;br&gt;+ dob: date&lt;br&gt;+ address: str&lt;br&gt;+ permissions : int" style="text;strokeColor=none;fillColor=none;align=left;verticalAlign=top;spacingLeft=4;spacingRight=4;overflow=hidden;rotatable=1;points=[[0,0.5],[1,0.5]];portConstraint=eastwest;whiteSpace=wrap;html=1;movable=1;resizable=1;deletable=1;editable=1;locked=0;connectable=1;" parent="efT1H9IHbkuEdNpOwblL-1" vertex="1">
          <mxGeometry y="26" width="160" height="94" as="geometry" />
        </mxCell>
        <mxCell id="efT1H9IHbkuEdNpOwblL-3" value="" style="line;strokeWidth=1;fillColor=none;align=left;verticalAlign=middle;spacingTop=-1;spacingLeft=3;spacingRight=3;rotatable=1;labelPosition=right;points=[];portConstraint=eastwest;strokeColor=inherit;movable=1;resizable=1;deletable=1;editable=1;locked=0;connectable=1;" parent="efT1H9IHbkuEdNpOwblL-1" vertex="1">
          <mxGeometry y="120" width="160" height="10" as="geometry" />
        </mxCell>
        <mxCell id="efT1H9IHbkuEdNpOwblL-4" value="+ edit_details()&lt;br&gt;+ myApplications()&lt;br&gt;+ activeDrives()" style="text;strokeColor=none;fillColor=none;align=left;verticalAlign=top;spacingLeft=4;spacingRight=4;overflow=hidden;rotatable=1;points=[[0,0.5],[1,0.5]];portConstraint=eastwest;whiteSpace=wrap;html=1;movable=1;resizable=1;deletable=1;editable=1;locked=0;connectable=1;" parent="efT1H9IHbkuEdNpOwblL-1" vertex="1">
          <mxGeometry y="130" width="160" height="60" as="geometry" />
        </mxCell>
        <mxCell id="efT1H9IHbkuEdNpOwblL-5" value="Admin" style="swimlane;fontStyle=1;align=center;verticalAlign=top;childLayout=stackLayout;horizontal=1;startSize=26;horizontalStack=0;resizeParent=1;resizeParentMax=0;resizeLast=0;collapsible=1;marginBottom=0;whiteSpace=wrap;html=1;movable=1;resizable=1;rotatable=1;deletable=1;editable=1;locked=0;connectable=1;" parent="1" vertex="1">
          <mxGeometry x="308" y="340" width="160" height="116" as="geometry" />
        </mxCell>
        <mxCell id="efT1H9IHbkuEdNpOwblL-7" value="" style="line;strokeWidth=1;fillColor=none;align=left;verticalAlign=middle;spacingTop=-1;spacingLeft=3;spacingRight=3;rotatable=1;labelPosition=right;points=[];portConstraint=eastwest;strokeColor=inherit;movable=1;resizable=1;deletable=1;editable=1;locked=0;connectable=1;" parent="efT1H9IHbkuEdNpOwblL-5" vertex="1">
          <mxGeometry y="26" width="160" height="8" as="geometry" />
        </mxCell>
        <mxCell id="efT1H9IHbkuEdNpOwblL-8" value="+ viewStatistics()&lt;br&gt;+ activeDrives()&lt;br&gt;+ registeredStudents()&lt;br&gt;+ registeredCompanies()&lt;br&gt;+ validate()" style="text;strokeColor=none;fillColor=none;align=left;verticalAlign=top;spacingLeft=4;spacingRight=4;overflow=hidden;rotatable=1;points=[[0,0.5],[1,0.5]];portConstraint=eastwest;whiteSpace=wrap;html=1;movable=1;resizable=1;deletable=1;editable=1;locked=0;connectable=1;" parent="efT1H9IHbkuEdNpOwblL-5" vertex="1">
          <mxGeometry y="34" width="160" height="82" as="geometry" />
        </mxCell>
        <mxCell id="efT1H9IHbkuEdNpOwblL-9" value="Company" style="swimlane;fontStyle=1;align=center;verticalAlign=top;childLayout=stackLayout;horizontal=1;startSize=26;horizontalStack=0;resizeParent=1;resizeParentMax=0;resizeLast=0;collapsible=1;marginBottom=0;whiteSpace=wrap;html=1;movable=1;resizable=1;rotatable=1;deletable=1;editable=1;locked=0;connectable=1;" parent="1" vertex="1">
          <mxGeometry x="598" y="340" width="160" height="190" as="geometry" />
        </mxCell>
        <mxCell id="efT1H9IHbkuEdNpOwblL-10" value="+ name: str&lt;br&gt;+ website: str&lt;br&gt;+ address: str&lt;br&gt;+ role: str&lt;br&gt;+ permissions : int" style="text;strokeColor=none;fillColor=none;align=left;verticalAlign=top;spacingLeft=4;spacingRight=4;overflow=hidden;rotatable=1;points=[[0,0.5],[1,0.5]];portConstraint=eastwest;whiteSpace=wrap;html=1;movable=1;resizable=1;deletable=1;editable=1;locked=0;connectable=1;" parent="efT1H9IHbkuEdNpOwblL-9" vertex="1">
          <mxGeometry y="26" width="160" height="84" as="geometry" />
        </mxCell>
        <mxCell id="efT1H9IHbkuEdNpOwblL-11" value="" style="line;strokeWidth=1;fillColor=none;align=left;verticalAlign=middle;spacingTop=-1;spacingLeft=3;spacingRight=3;rotatable=1;labelPosition=right;points=[];portConstraint=eastwest;strokeColor=inherit;movable=1;resizable=1;deletable=1;editable=1;locked=0;connectable=1;" parent="efT1H9IHbkuEdNpOwblL-9" vertex="1">
          <mxGeometry y="110" width="160" height="8" as="geometry" />
        </mxCell>
        <mxCell id="efT1H9IHbkuEdNpOwblL-12" value="+ postDrive()&lt;br&gt;+ postedDrive()&lt;br&gt;+ candidateRegister()&lt;br&gt;+ edit_details()" style="text;strokeColor=none;fillColor=none;align=left;verticalAlign=top;spacingLeft=4;spacingRight=4;overflow=hidden;rotatable=1;points=[[0,0.5],[1,0.5]];portConstraint=eastwest;whiteSpace=wrap;html=1;movable=1;resizable=1;deletable=1;editable=1;locked=0;connectable=1;" parent="efT1H9IHbkuEdNpOwblL-9" vertex="1">
          <mxGeometry y="118" width="160" height="72" as="geometry" />
        </mxCell>
        <mxCell id="efT1H9IHbkuEdNpOwblL-13" value="Job" style="swimlane;fontStyle=1;align=center;verticalAlign=top;childLayout=stackLayout;horizontal=1;startSize=26;horizontalStack=0;resizeParent=1;resizeParentMax=0;resizeLast=0;collapsible=1;marginBottom=0;whiteSpace=wrap;html=1;movable=1;resizable=1;rotatable=1;deletable=1;editable=1;locked=0;connectable=1;" parent="1" vertex="1">
          <mxGeometry x="418" y="700" width="160" height="180" as="geometry" />
        </mxCell>
        <mxCell id="efT1H9IHbkuEdNpOwblL-14" value="+ job_id: int&lt;br&gt;+ job_role: str&lt;br&gt;+ job_description: str&lt;br&gt;+ job_salary: str" style="text;strokeColor=none;fillColor=none;align=left;verticalAlign=top;spacingLeft=4;spacingRight=4;overflow=hidden;rotatable=1;points=[[0,0.5],[1,0.5]];portConstraint=eastwest;whiteSpace=wrap;html=1;movable=1;resizable=1;deletable=1;editable=1;locked=0;connectable=1;" parent="efT1H9IHbkuEdNpOwblL-13" vertex="1">
          <mxGeometry y="26" width="160" height="74" as="geometry" />
        </mxCell>
        <mxCell id="efT1H9IHbkuEdNpOwblL-15" value="" style="line;strokeWidth=1;fillColor=none;align=left;verticalAlign=middle;spacingTop=-1;spacingLeft=3;spacingRight=3;rotatable=1;labelPosition=right;points=[];portConstraint=eastwest;strokeColor=inherit;movable=1;resizable=1;deletable=1;editable=1;locked=0;connectable=1;" parent="efT1H9IHbkuEdNpOwblL-13" vertex="1">
          <mxGeometry y="100" width="160" height="8" as="geometry" />
        </mxCell>
        <mxCell id="efT1H9IHbkuEdNpOwblL-16" value="+ addJob()&lt;br&gt;+ editJob()&lt;br&gt;+ searchJob()&lt;br&gt;+ deleteJob()" style="text;strokeColor=none;fillColor=none;align=left;verticalAlign=top;spacingLeft=4;spacingRight=4;overflow=hidden;rotatable=1;points=[[0,0.5],[1,0.5]];portConstraint=eastwest;whiteSpace=wrap;html=1;movable=1;resizable=1;deletable=1;editable=1;locked=0;connectable=1;" parent="efT1H9IHbkuEdNpOwblL-13" vertex="1">
          <mxGeometry y="108" width="160" height="72" as="geometry" />
        </mxCell>
        <mxCell id="efT1H9IHbkuEdNpOwblL-21" value="Validation" style="swimlane;fontStyle=1;align=center;verticalAlign=top;childLayout=stackLayout;horizontal=1;startSize=26;horizontalStack=0;resizeParent=1;resizeParentMax=0;resizeLast=0;collapsible=1;marginBottom=0;whiteSpace=wrap;html=1;movable=1;resizable=1;rotatable=1;deletable=1;editable=1;locked=0;connectable=1;" parent="1" vertex="1">
          <mxGeometry x="308" y="510" width="160" height="126" as="geometry" />
        </mxCell>
        <mxCell id="efT1H9IHbkuEdNpOwblL-23" value="" style="line;strokeWidth=1;fillColor=none;align=left;verticalAlign=middle;spacingTop=-1;spacingLeft=3;spacingRight=3;rotatable=1;labelPosition=right;points=[];portConstraint=eastwest;strokeColor=inherit;movable=1;resizable=1;deletable=1;editable=1;locked=0;connectable=1;" parent="efT1H9IHbkuEdNpOwblL-21" vertex="1">
          <mxGeometry y="26" width="160" height="8" as="geometry" />
        </mxCell>
        <mxCell id="efT1H9IHbkuEdNpOwblL-24" value="+ approve()&lt;br&gt;+ reject()&lt;br&gt;+ delStudent()&lt;br&gt;+ delCoord()&lt;br&gt;+ editPermission()&lt;br&gt;" style="text;strokeColor=none;fillColor=none;align=left;verticalAlign=top;spacingLeft=4;spacingRight=4;overflow=hidden;rotatable=1;points=[[0,0.5],[1,0.5]];portConstraint=eastwest;whiteSpace=wrap;html=1;movable=1;resizable=1;deletable=1;editable=1;locked=0;connectable=1;" parent="efT1H9IHbkuEdNpOwblL-21" vertex="1">
          <mxGeometry y="34" width="160" height="92" as="geometry" />
        </mxCell>
        <mxCell id="efT1H9IHbkuEdNpOwblL-29" value="Mailbox" style="swimlane;fontStyle=1;align=center;verticalAlign=top;childLayout=stackLayout;horizontal=1;startSize=26;horizontalStack=0;resizeParent=1;resizeParentMax=0;resizeLast=0;collapsible=1;marginBottom=0;whiteSpace=wrap;html=1;movable=1;resizable=1;rotatable=1;deletable=1;editable=1;locked=0;connectable=1;fillColor=none;" parent="1" vertex="1">
          <mxGeometry x="168" y="660" width="160" height="160" as="geometry" />
        </mxCell>
        <mxCell id="efT1H9IHbkuEdNpOwblL-30" value="+ email_index: int&lt;br&gt;+ subject: str&lt;br&gt;+ date: date&lt;br&gt;&amp;nbsp;" style="text;strokeColor=none;fillColor=none;align=left;verticalAlign=top;spacingLeft=4;spacingRight=4;overflow=hidden;rotatable=1;points=[[0,0.5],[1,0.5]];portConstraint=eastwest;whiteSpace=wrap;html=1;movable=1;resizable=1;deletable=1;editable=1;locked=0;connectable=1;" parent="efT1H9IHbkuEdNpOwblL-29" vertex="1">
          <mxGeometry y="26" width="160" height="54" as="geometry" />
        </mxCell>
        <mxCell id="efT1H9IHbkuEdNpOwblL-31" value="" style="line;strokeWidth=1;fillColor=none;align=left;verticalAlign=middle;spacingTop=-1;spacingLeft=3;spacingRight=3;rotatable=1;labelPosition=right;points=[];portConstraint=eastwest;strokeColor=inherit;movable=1;resizable=1;deletable=1;editable=1;locked=0;connectable=1;" parent="efT1H9IHbkuEdNpOwblL-29" vertex="1">
          <mxGeometry y="80" width="160" height="8" as="geometry" />
        </mxCell>
        <mxCell id="efT1H9IHbkuEdNpOwblL-32" value="+ create()&lt;br&gt;+ search()&lt;br&gt;+ delete()&lt;br&gt;+ send()&amp;nbsp;" style="text;strokeColor=none;fillColor=none;align=left;verticalAlign=top;spacingLeft=4;spacingRight=4;overflow=hidden;rotatable=1;points=[[0,0.5],[1,0.5]];portConstraint=eastwest;whiteSpace=wrap;html=1;movable=1;resizable=1;deletable=1;editable=1;locked=0;connectable=1;" parent="efT1H9IHbkuEdNpOwblL-29" vertex="1">
          <mxGeometry y="88" width="160" height="72" as="geometry" />
        </mxCell>
        <mxCell id="efT1H9IHbkuEdNpOwblL-33" value="User" style="swimlane;fontStyle=1;align=center;verticalAlign=top;childLayout=stackLayout;horizontal=1;startSize=26;horizontalStack=0;resizeParent=1;resizeParentMax=0;resizeLast=0;collapsible=1;marginBottom=0;whiteSpace=wrap;html=1;movable=1;resizable=1;rotatable=1;deletable=1;editable=1;locked=0;connectable=1;" parent="1" vertex="1">
          <mxGeometry x="308" y="100" width="160" height="124" as="geometry" />
        </mxCell>
        <mxCell id="efT1H9IHbkuEdNpOwblL-34" value="+ user_name: str&lt;br&gt;+ password: str&lt;br&gt;+ email: str&lt;br&gt;+ contact: str" style="text;strokeColor=none;fillColor=none;align=left;verticalAlign=top;spacingLeft=4;spacingRight=4;overflow=hidden;rotatable=1;points=[[0,0.5],[1,0.5]];portConstraint=eastwest;whiteSpace=wrap;html=1;movable=1;resizable=1;deletable=1;editable=1;locked=0;connectable=1;" parent="efT1H9IHbkuEdNpOwblL-33" vertex="1">
          <mxGeometry y="26" width="160" height="64" as="geometry" />
        </mxCell>
        <mxCell id="efT1H9IHbkuEdNpOwblL-35" value="" style="line;strokeWidth=1;fillColor=none;align=left;verticalAlign=middle;spacingTop=-1;spacingLeft=3;spacingRight=3;rotatable=1;labelPosition=right;points=[];portConstraint=eastwest;strokeColor=inherit;movable=1;resizable=1;deletable=1;editable=1;locked=0;connectable=1;" parent="efT1H9IHbkuEdNpOwblL-33" vertex="1">
          <mxGeometry y="90" width="160" height="8" as="geometry" />
        </mxCell>
        <mxCell id="efT1H9IHbkuEdNpOwblL-36" value="+ edit_details()&amp;nbsp;" style="text;strokeColor=none;fillColor=none;align=left;verticalAlign=top;spacingLeft=4;spacingRight=4;overflow=hidden;rotatable=1;points=[[0,0.5],[1,0.5]];portConstraint=eastwest;whiteSpace=wrap;html=1;movable=1;resizable=1;deletable=1;editable=1;locked=0;connectable=1;" parent="efT1H9IHbkuEdNpOwblL-33" vertex="1">
          <mxGeometry y="98" width="160" height="26" as="geometry" />
        </mxCell>
        <mxCell id="efT1H9IHbkuEdNpOwblL-37" value="Database" style="swimlane;fontStyle=1;align=center;verticalAlign=top;childLayout=stackLayout;horizontal=1;startSize=26;horizontalStack=0;resizeParent=1;resizeParentMax=0;resizeLast=0;collapsible=1;marginBottom=0;whiteSpace=wrap;html=1;movable=1;resizable=1;rotatable=1;deletable=1;editable=1;locked=0;connectable=1;" parent="1" vertex="1">
          <mxGeometry x="618" y="100" width="160" height="148" as="geometry" />
        </mxCell>
        <mxCell id="efT1H9IHbkuEdNpOwblL-38" value="- id: int&lt;br&gt;- name: str" style="text;strokeColor=none;fillColor=none;align=left;verticalAlign=top;spacingLeft=4;spacingRight=4;overflow=hidden;rotatable=1;points=[[0,0.5],[1,0.5]];portConstraint=eastwest;whiteSpace=wrap;html=1;movable=1;resizable=1;deletable=1;editable=1;locked=0;connectable=1;" parent="efT1H9IHbkuEdNpOwblL-37" vertex="1">
          <mxGeometry y="26" width="160" height="44" as="geometry" />
        </mxCell>
        <mxCell id="efT1H9IHbkuEdNpOwblL-39" value="" style="line;strokeWidth=1;fillColor=none;align=left;verticalAlign=middle;spacingTop=-1;spacingLeft=3;spacingRight=3;rotatable=1;labelPosition=right;points=[];portConstraint=eastwest;strokeColor=inherit;movable=1;resizable=1;deletable=1;editable=1;locked=0;connectable=1;" parent="efT1H9IHbkuEdNpOwblL-37" vertex="1">
          <mxGeometry y="70" width="160" height="8" as="geometry" />
        </mxCell>
        <mxCell id="efT1H9IHbkuEdNpOwblL-40" value="+ create()&lt;br&gt;+ insert()&lt;br&gt;+ delete()&lt;br&gt;+ update()&lt;br&gt;" style="text;strokeColor=none;fillColor=none;align=left;verticalAlign=top;spacingLeft=4;spacingRight=4;overflow=hidden;rotatable=1;points=[[0,0.5],[1,0.5]];portConstraint=eastwest;whiteSpace=wrap;html=1;movable=1;resizable=1;deletable=1;editable=1;locked=0;connectable=1;" parent="efT1H9IHbkuEdNpOwblL-37" vertex="1">
          <mxGeometry y="78" width="160" height="70" as="geometry" />
        </mxCell>
        <mxCell id="efT1H9IHbkuEdNpOwblL-42" value="" style="endArrow=block;endSize=16;endFill=0;html=1;rounded=0;exitX=0.5;exitY=0;exitDx=0;exitDy=0;movable=1;resizable=1;rotatable=1;deletable=1;editable=1;locked=0;connectable=1;" parent="1" source="efT1H9IHbkuEdNpOwblL-1" target="efT1H9IHbkuEdNpOwblL-36" edge="1">
          <mxGeometry width="160" relative="1" as="geometry">
            <mxPoint x="168" y="280" as="sourcePoint" />
            <mxPoint x="328" y="280" as="targetPoint" />
            <Array as="points">
              <mxPoint x="128" y="300" />
              <mxPoint x="388" y="300" />
            </Array>
          </mxGeometry>
        </mxCell>
        <mxCell id="efT1H9IHbkuEdNpOwblL-55" value="" style="endArrow=none;html=1;edgeStyle=orthogonalEdgeStyle;rounded=0;entryX=0.5;entryY=0;entryDx=0;entryDy=0;movable=1;resizable=1;rotatable=1;deletable=1;editable=1;locked=0;connectable=1;" parent="1" target="efT1H9IHbkuEdNpOwblL-9" edge="1">
          <mxGeometry relative="1" as="geometry">
            <mxPoint x="388" y="300" as="sourcePoint" />
            <mxPoint x="708" y="290" as="targetPoint" />
          </mxGeometry>
        </mxCell>
        <mxCell id="KQDlxPyvR3qcmhoH2UGJ-2" value="" style="endArrow=none;html=1;rounded=0;exitX=0.5;exitY=0;exitDx=0;exitDy=0;movable=1;resizable=1;rotatable=1;deletable=1;editable=1;locked=0;connectable=1;" parent="1" source="efT1H9IHbkuEdNpOwblL-5" edge="1">
          <mxGeometry width="50" height="50" relative="1" as="geometry">
            <mxPoint x="418" y="350" as="sourcePoint" />
            <mxPoint x="388" y="300" as="targetPoint" />
          </mxGeometry>
        </mxCell>
        <mxCell id="KQDlxPyvR3qcmhoH2UGJ-5" value="" style="endArrow=none;html=1;edgeStyle=orthogonalEdgeStyle;rounded=0;" parent="1" source="efT1H9IHbkuEdNpOwblL-1" target="efT1H9IHbkuEdNpOwblL-29" edge="1">
          <mxGeometry relative="1" as="geometry">
            <mxPoint x="148" y="560" as="sourcePoint" />
            <mxPoint x="548" y="780" as="targetPoint" />
            <Array as="points">
              <mxPoint x="148" y="680" />
            </Array>
          </mxGeometry>
        </mxCell>
        <mxCell id="KQDlxPyvR3qcmhoH2UGJ-6" value="1" style="edgeLabel;resizable=0;html=1;align=left;verticalAlign=bottom;" parent="KQDlxPyvR3qcmhoH2UGJ-5" connectable="0" vertex="1">
          <mxGeometry x="-1" relative="1" as="geometry">
            <mxPoint y="20" as="offset" />
          </mxGeometry>
        </mxCell>
        <mxCell id="KQDlxPyvR3qcmhoH2UGJ-7" value="1" style="edgeLabel;resizable=0;html=1;align=right;verticalAlign=bottom;" parent="KQDlxPyvR3qcmhoH2UGJ-5" connectable="0" vertex="1">
          <mxGeometry x="1" relative="1" as="geometry">
            <mxPoint x="-10" as="offset" />
          </mxGeometry>
        </mxCell>
        <mxCell id="KQDlxPyvR3qcmhoH2UGJ-8" value="" style="endArrow=none;html=1;edgeStyle=orthogonalEdgeStyle;rounded=0;" parent="1" source="efT1H9IHbkuEdNpOwblL-29" target="efT1H9IHbkuEdNpOwblL-9" edge="1">
          <mxGeometry relative="1" as="geometry">
            <mxPoint x="408" y="690" as="sourcePoint" />
            <mxPoint x="568" y="690" as="targetPoint" />
            <Array as="points">
              <mxPoint x="628" y="680" />
            </Array>
          </mxGeometry>
        </mxCell>
        <mxCell id="KQDlxPyvR3qcmhoH2UGJ-9" value="1" style="edgeLabel;resizable=0;html=1;align=left;verticalAlign=bottom;" parent="KQDlxPyvR3qcmhoH2UGJ-8" connectable="0" vertex="1">
          <mxGeometry x="-1" relative="1" as="geometry">
            <mxPoint x="282" y="-130" as="offset" />
          </mxGeometry>
        </mxCell>
        <mxCell id="KQDlxPyvR3qcmhoH2UGJ-10" value="1" style="edgeLabel;resizable=0;html=1;align=right;verticalAlign=bottom;" parent="KQDlxPyvR3qcmhoH2UGJ-8" connectable="0" vertex="1">
          <mxGeometry x="1" relative="1" as="geometry">
            <mxPoint x="-280" y="150" as="offset" />
          </mxGeometry>
        </mxCell>
        <mxCell id="KQDlxPyvR3qcmhoH2UGJ-11" value="" style="endArrow=diamondThin;endFill=1;endSize=24;html=1;rounded=0;" parent="1" source="efT1H9IHbkuEdNpOwblL-13" target="efT1H9IHbkuEdNpOwblL-9" edge="1">
          <mxGeometry width="160" relative="1" as="geometry">
            <mxPoint x="418" y="630" as="sourcePoint" />
            <mxPoint x="688" y="530" as="targetPoint" />
            <Array as="points">
              <mxPoint x="678" y="790" />
            </Array>
          </mxGeometry>
        </mxCell>
        <mxCell id="KQDlxPyvR3qcmhoH2UGJ-13" value="" style="endArrow=none;html=1;edgeStyle=orthogonalEdgeStyle;rounded=0;" parent="1" source="efT1H9IHbkuEdNpOwblL-21" target="efT1H9IHbkuEdNpOwblL-5" edge="1">
          <mxGeometry relative="1" as="geometry">
            <mxPoint x="418" y="570" as="sourcePoint" />
            <mxPoint x="578" y="570" as="targetPoint" />
          </mxGeometry>
        </mxCell>
        <mxCell id="KQDlxPyvR3qcmhoH2UGJ-14" value="1" style="edgeLabel;resizable=0;html=1;align=left;verticalAlign=bottom;" parent="KQDlxPyvR3qcmhoH2UGJ-13" connectable="0" vertex="1">
          <mxGeometry x="-1" relative="1" as="geometry">
            <mxPoint x="-10" y="-30" as="offset" />
          </mxGeometry>
        </mxCell>
        <mxCell id="KQDlxPyvR3qcmhoH2UGJ-15" value="0...*" style="edgeLabel;resizable=0;html=1;align=right;verticalAlign=bottom;" parent="KQDlxPyvR3qcmhoH2UGJ-13" connectable="0" vertex="1">
          <mxGeometry x="1" relative="1" as="geometry">
            <mxPoint x="30" y="54" as="offset" />
          </mxGeometry>
        </mxCell>
        <mxCell id="KQDlxPyvR3qcmhoH2UGJ-16" value="" style="endArrow=none;html=1;edgeStyle=orthogonalEdgeStyle;rounded=0;" parent="1" source="efT1H9IHbkuEdNpOwblL-1" target="efT1H9IHbkuEdNpOwblL-21" edge="1">
          <mxGeometry relative="1" as="geometry">
            <mxPoint x="398" y="600" as="sourcePoint" />
            <mxPoint x="558" y="600" as="targetPoint" />
          </mxGeometry>
        </mxCell>
        <mxCell id="KQDlxPyvR3qcmhoH2UGJ-19" value="" style="endArrow=none;html=1;edgeStyle=orthogonalEdgeStyle;rounded=0;" parent="1" source="efT1H9IHbkuEdNpOwblL-9" target="efT1H9IHbkuEdNpOwblL-21" edge="1">
          <mxGeometry relative="1" as="geometry">
            <mxPoint x="218" y="445" as="sourcePoint" />
            <mxPoint x="318" y="583" as="targetPoint" />
          </mxGeometry>
        </mxCell>
        <mxCell id="KQDlxPyvR3qcmhoH2UGJ-23" value="" style="endArrow=none;html=1;edgeStyle=orthogonalEdgeStyle;rounded=0;" parent="1" source="efT1H9IHbkuEdNpOwblL-1" target="efT1H9IHbkuEdNpOwblL-13" edge="1">
          <mxGeometry relative="1" as="geometry">
            <mxPoint x="328" y="680" as="sourcePoint" />
            <mxPoint x="328" y="840" as="targetPoint" />
            <Array as="points">
              <mxPoint x="100" y="860" />
            </Array>
          </mxGeometry>
        </mxCell>
        <mxCell id="KQDlxPyvR3qcmhoH2UGJ-24" value="0...*" style="edgeLabel;resizable=0;html=1;align=left;verticalAlign=bottom;" parent="KQDlxPyvR3qcmhoH2UGJ-23" connectable="0" vertex="1">
          <mxGeometry x="-1" relative="1" as="geometry">
            <mxPoint y="20" as="offset" />
          </mxGeometry>
        </mxCell>
        <mxCell id="KQDlxPyvR3qcmhoH2UGJ-25" value="0...*" style="edgeLabel;resizable=0;html=1;align=right;verticalAlign=bottom;" parent="KQDlxPyvR3qcmhoH2UGJ-23" connectable="0" vertex="1">
          <mxGeometry x="1" relative="1" as="geometry">
            <mxPoint x="-10" as="offset" />
          </mxGeometry>
        </mxCell>
        <mxCell id="KQDlxPyvR3qcmhoH2UGJ-26" value="" style="endArrow=none;html=1;edgeStyle=orthogonalEdgeStyle;rounded=0;" parent="1" source="efT1H9IHbkuEdNpOwblL-33" target="efT1H9IHbkuEdNpOwblL-37" edge="1">
          <mxGeometry relative="1" as="geometry">
            <mxPoint x="378" y="230" as="sourcePoint" />
            <mxPoint x="568" y="162" as="targetPoint" />
            <Array as="points">
              <mxPoint x="538" y="110" />
              <mxPoint x="538" y="110" />
            </Array>
          </mxGeometry>
        </mxCell>
      </root>
    </mxGraphModel>
  </diagram>
</mxfile>
